<svg width="50" height="51" viewBox="0 0 50 51" fill="none" xmlns="http://www.w3.org/2000/svg">
<g clip-path="url(#clip0_403_904)">
<path d="M25 50.6364C38.8071 50.6364 50 39.4435 50 25.6364C50 11.8292 38.8071 0.636353 25 0.636353C11.1929 0.636353 0 11.8292 0 25.6364C0 39.4435 11.1929 50.6364 25 50.6364Z" fill="#F0F0F0"/>
<path d="M25 0.636353C11.193 0.636353 0 11.8293 0 25.6364C0 28.6944 0.550098 31.6238 1.55498 34.332H48.4451C49.45 31.6238 50 28.6944 50 25.6364C50 11.8293 38.807 0.636353 25 0.636353Z" fill="#0052B4"/>
<path d="M25 0.636353C14.2509 0.636353 5.0873 7.42073 1.55498 16.9407H48.4451C44.9127 7.42073 35.7491 0.636353 25 0.636353V0.636353Z" fill="#D80027"/>
<path d="M6.46465 14.7668V27.2381C6.46465 34.3323 15.7323 36.506 15.7323 36.506C15.7323 36.506 24.9999 34.3323 24.9999 27.2381V14.7668H6.46465Z" fill="#D80027"/>
<path d="M10.2975 16.9407H21.1671V12.5929L18.9932 13.6798L15.7323 10.419L12.4714 13.6798L10.2975 12.5929V16.9407Z" fill="#FFDA44"/>
<path d="M22.8261 28.9745L15.7608 21.9093L8.6956 28.9745L11.0014 31.2803L15.7608 26.5208L20.5203 31.2803L22.8261 28.9745Z" fill="#FFDA44"/>
<path d="M22.8261 22.3755H19.5296C19.7149 22.0556 19.8228 21.6851 19.8228 21.2888C19.8228 20.088 18.8494 19.1149 17.6488 19.1149C16.8192 19.1149 16.0988 19.5795 15.7323 20.2626C15.3658 19.5796 14.6454 19.1149 13.8158 19.1149C12.6152 19.1149 11.6419 20.088 11.6419 21.2888C11.6419 21.6851 11.7497 22.0557 11.9351 22.3755H8.6956C8.6956 23.5762 9.7414 24.5494 10.9419 24.5494H10.8695C10.8695 25.7501 11.8428 26.7234 13.0435 26.7234C13.0435 27.7865 13.8069 28.6697 14.8152 28.8587L13.1023 32.7261C13.9232 33.0598 14.8203 33.2451 15.7609 33.2451C16.7016 33.2451 17.5986 33.0598 18.4195 32.7261L16.7066 28.8587C17.7149 28.6698 18.4784 27.7865 18.4784 26.7234C19.6791 26.7234 20.6523 25.7501 20.6523 24.5494H20.58C21.7804 24.5494 22.8261 23.5761 22.8261 22.3755V22.3755Z" fill="#F0F0F0"/>
</g>
<defs>
<clipPath id="clip0_403_904">
<rect width="50" height="50" fill="white" transform="translate(0 0.636353)"/>
</clipPath>
</defs>
</svg>
