<svg width="50" height="51" viewBox="0 0 50 51" fill="none" xmlns="http://www.w3.org/2000/svg">
<g clip-path="url(#clip0_403_899)">
<path d="M25 50.6364C38.8071 50.6364 50 39.4435 50 25.6364C50 11.8292 38.8071 0.636353 25 0.636353C11.1929 0.636353 0 11.8292 0 25.6364C0 39.4435 11.1929 50.6364 25 50.6364Z" fill="#6DA544"/>
<path d="M25 10.419L45.6521 25.6363L25 40.8537L4.34784 25.6363L25 10.419Z" fill="#FFDA44"/>
<path d="M25 34.332C29.8024 34.332 33.6956 30.4388 33.6956 25.6364C33.6956 20.8339 29.8024 16.9408 25 16.9408C20.1975 16.9408 16.3044 20.8339 16.3044 25.6364C16.3044 30.4388 20.1975 34.332 25 34.332Z" fill="#F0F0F0"/>
<path d="M20.6521 25.0929C19.14 25.0929 17.6808 25.3229 16.3071 25.7496C16.368 30.4996 20.2355 34.3321 25 34.3321C27.9461 34.3321 30.548 32.8656 32.121 30.6242C29.4299 27.2554 25.2892 25.0929 20.6521 25.0929V25.0929Z" fill="#0052B4"/>
<path d="M33.5345 27.3024C33.6392 26.7629 33.6957 26.2064 33.6957 25.6364C33.6957 20.8338 29.8025 16.9408 25.0001 16.9408C21.4167 16.9408 18.3405 19.1088 17.0093 22.2043C18.186 21.9605 19.4044 21.8321 20.6523 21.8321C25.7028 21.832 30.2718 23.9314 33.5345 27.3024V27.3024Z" fill="#0052B4"/>
</g>
<defs>
<clipPath id="clip0_403_899">
<rect width="50" height="50" fill="white" transform="translate(0 0.636353)"/>
</clipPath>
</defs>
</svg>
