<svg width="270" height="65" viewBox="0 0 270 65" fill="none" xmlns="http://www.w3.org/2000/svg">
<path d="M85.6859 18.9981C83.7596 18.9981 81.7358 18.6331 80.1497 17.754V2.24411C81.711 1.38988 83.7348 1.00003 85.6859 1.00003C87.6371 1.00003 89.6131 1.36503 91.1725 2.24411V8.19505H87.2453V4.14558C86.7829 3.95066 86.221 3.87804 85.6611 3.87804C85.1012 3.87804 84.5871 3.95066 84.0998 4.14558V15.8525C84.5623 16.0475 85.0993 16.1201 85.6611 16.1201C86.2229 16.1201 86.758 16.0475 87.2453 15.8525V11.805H91.1725V17.7559C89.636 18.6102 87.6123 18.9752 85.6859 19V18.9981Z" fill="#F7DD43"/>
<path d="M98.5377 18.9981C96.4642 18.9981 94.4653 18.5585 92.8791 17.6565V2.3167C94.4404 1.43954 96.4413 1 98.5377 1C100.634 1 102.585 1.41469 104.147 2.3167V17.6565C102.61 18.5585 100.586 18.9732 98.5377 18.9981ZM100.221 4.19524C99.7588 4.00031 99.197 3.90285 98.5147 3.90285C97.8325 3.90285 97.2955 4.00031 96.8311 4.19524V15.7799C97.2936 15.9997 97.8554 16.0971 98.5147 16.0971C99.1741 16.0971 99.734 15.9997 100.221 15.7799V4.19524Z" fill="#F7DD43"/>
<path d="M110.999 12.4127H109.95V18.7783H105.975V1.21978H110.999C113.39 1.21978 115.194 1.70709 116.608 2.70656V10.9259C115.219 11.9024 113.388 12.4127 110.999 12.4127ZM112.658 4.24303C112.293 3.97548 111.804 3.85318 110.975 3.85318H109.901V9.77927H110.975C111.779 9.77927 112.266 9.65697 112.658 9.41427V4.24303Z" fill="#F7DD43"/>
<path d="M124.923 18.7783V12.4127H121.997V18.7783H118.047V2.29186C119.486 1.43763 121.51 1 123.461 1C125.412 1 127.411 1.43954 128.85 2.29186V18.7783H124.923ZM124.923 4.04809C124.508 3.85317 123.996 3.7557 123.459 3.7557C122.922 3.7557 122.41 3.85317 121.995 4.04809V9.63211H124.921V4.04809H124.923Z" fill="#F7DD43"/>
<path d="M147.472 15.8262V19H135.07V16.3145L140.783 10.3086C141.288 9.73079 141.694 9.21403 142.004 8.7583C142.313 8.29443 142.537 7.87533 142.675 7.50098C142.822 7.12663 142.895 6.7889 142.895 6.48779C142.895 5.9751 142.817 5.54785 142.663 5.20605C142.516 4.85612 142.297 4.59163 142.004 4.4126C141.719 4.23356 141.365 4.14404 140.942 4.14404C140.518 4.14404 140.148 4.26611 139.831 4.51025C139.513 4.75439 139.265 5.08805 139.086 5.51123C138.915 5.93441 138.83 6.41048 138.83 6.93945H134.704C134.704 5.84896 134.968 4.85205 135.497 3.94873C136.034 3.04541 136.779 2.3252 137.731 1.78809C138.683 1.24284 139.786 0.970215 141.039 0.970215C142.35 0.970215 143.448 1.17367 144.335 1.58057C145.222 1.98747 145.89 2.57747 146.337 3.35059C146.793 4.11556 147.021 5.03923 147.021 6.12158C147.021 6.74007 146.923 7.33415 146.728 7.90381C146.532 8.47347 146.252 9.03906 145.885 9.60059C145.519 10.154 145.072 10.7236 144.543 11.3096C144.022 11.8955 143.428 12.5181 142.76 13.1772L140.466 15.8262H147.472ZM161.163 8.48975V11.7368C161.163 13.0145 161.013 14.1253 160.712 15.0693C160.419 16.0133 159.996 16.7946 159.442 17.4131C158.897 18.0316 158.246 18.4914 157.489 18.7925C156.732 19.0936 155.898 19.2441 154.987 19.2441C154.254 19.2441 153.571 19.1506 152.936 18.9634C152.301 18.7681 151.727 18.4751 151.215 18.0845C150.71 17.6857 150.275 17.1893 149.908 16.5952C149.542 16.0011 149.261 15.3013 149.066 14.4956C148.871 13.6818 148.773 12.7622 148.773 11.7368V8.48975C148.773 7.20394 148.92 6.0931 149.213 5.15723C149.514 4.21322 149.941 3.43197 150.494 2.81348C151.048 2.19499 151.703 1.73519 152.46 1.43408C153.217 1.13298 154.051 0.982422 154.962 0.982422C155.695 0.982422 156.374 1.08008 157.001 1.27539C157.635 1.46257 158.209 1.75553 158.722 2.1543C159.235 2.54492 159.67 3.03727 160.028 3.63135C160.394 4.22542 160.675 4.92936 160.87 5.74316C161.066 6.54883 161.163 7.46436 161.163 8.48975ZM157.05 12.2373V7.96484C157.05 7.39518 157.017 6.89876 156.952 6.47559C156.895 6.05241 156.805 5.69434 156.683 5.40137C156.569 5.1084 156.427 4.8724 156.256 4.69336C156.085 4.50618 155.89 4.37191 155.67 4.29053C155.459 4.20101 155.223 4.15625 154.962 4.15625C154.637 4.15625 154.344 4.22542 154.083 4.36377C153.831 4.49398 153.615 4.70557 153.436 4.99854C153.257 5.2915 153.119 5.68213 153.021 6.17041C152.932 6.65869 152.887 7.25684 152.887 7.96484V12.2373C152.887 12.8151 152.915 13.3197 152.972 13.751C153.038 14.1742 153.127 14.5363 153.241 14.8374C153.363 15.1304 153.51 15.3704 153.68 15.5576C153.851 15.7367 154.047 15.8669 154.266 15.9482C154.486 16.0296 154.726 16.0703 154.987 16.0703C155.304 16.0703 155.589 16.0052 155.841 15.875C156.093 15.7448 156.309 15.5332 156.488 15.2402C156.675 14.9391 156.814 14.5444 156.903 14.0562C157.001 13.5597 157.05 12.9535 157.05 12.2373ZM174.976 15.8262V19H162.574V16.3145L168.287 10.3086C168.791 9.73079 169.198 9.21403 169.508 8.7583C169.817 8.29443 170.041 7.87533 170.179 7.50098C170.325 7.12663 170.399 6.7889 170.399 6.48779C170.399 5.9751 170.321 5.54785 170.167 5.20605C170.02 4.85612 169.801 4.59163 169.508 4.4126C169.223 4.23356 168.869 4.14404 168.446 4.14404C168.022 4.14404 167.652 4.26611 167.335 4.51025C167.017 4.75439 166.769 5.08805 166.59 5.51123C166.419 5.93441 166.334 6.41048 166.334 6.93945H162.208C162.208 5.84896 162.472 4.85205 163.001 3.94873C163.538 3.04541 164.283 2.3252 165.235 1.78809C166.187 1.24284 167.29 0.970215 168.543 0.970215C169.853 0.970215 170.952 1.17367 171.839 1.58057C172.726 1.98747 173.393 2.57747 173.841 3.35059C174.297 4.11556 174.525 5.03923 174.525 6.12158C174.525 6.74007 174.427 7.33415 174.232 7.90381C174.036 8.47347 173.756 9.03906 173.389 9.60059C173.023 10.154 172.576 10.7236 172.047 11.3096C171.526 11.8955 170.932 12.5181 170.264 13.1772L167.969 15.8262H174.976ZM188.728 15.8262V19H176.326V16.3145L182.039 10.3086C182.543 9.73079 182.95 9.21403 183.26 8.7583C183.569 8.29443 183.793 7.87533 183.931 7.50098C184.077 7.12663 184.151 6.7889 184.151 6.48779C184.151 5.9751 184.073 5.54785 183.919 5.20605C183.772 4.85612 183.552 4.59163 183.26 4.4126C182.975 4.23356 182.621 4.14404 182.198 4.14404C181.774 4.14404 181.404 4.26611 181.087 4.51025C180.769 4.75439 180.521 5.08805 180.342 5.51123C180.171 5.93441 180.086 6.41048 180.086 6.93945H175.96C175.96 5.84896 176.224 4.85205 176.753 3.94873C177.29 3.04541 178.035 2.3252 178.987 1.78809C179.939 1.24284 181.042 0.970215 182.295 0.970215C183.605 0.970215 184.704 1.17367 185.591 1.58057C186.478 1.98747 187.145 2.57747 187.593 3.35059C188.049 4.11556 188.277 5.03923 188.277 6.12158C188.277 6.74007 188.179 7.33415 187.984 7.90381C187.788 8.47347 187.508 9.03906 187.141 9.60059C186.775 10.154 186.328 10.7236 185.799 11.3096C185.278 11.8955 184.684 12.5181 184.016 13.1772L181.721 15.8262H188.728Z" fill="#F7DD43"/>
<path d="M58.2129 48.9248H62.5928C62.5049 50.3604 62.1094 51.6348 61.4062 52.748C60.7129 53.8613 59.7412 54.7305 58.4912 55.3555C57.251 55.9805 55.7568 56.293 54.0088 56.293C52.6416 56.293 51.416 56.0586 50.332 55.5898C49.248 55.1113 48.3203 54.4277 47.5488 53.5391C46.7871 52.6504 46.2061 51.5762 45.8057 50.3164C45.4053 49.0566 45.2051 47.6455 45.2051 46.083V44.6035C45.2051 43.041 45.4102 41.6299 45.8203 40.3701C46.2402 39.1006 46.8359 38.0215 47.6074 37.1328C48.3887 36.2441 49.3213 35.5605 50.4053 35.082C51.4893 34.6035 52.7002 34.3643 54.0381 34.3643C55.8154 34.3643 57.3145 34.6865 58.5352 35.3311C59.7656 35.9756 60.7178 36.8643 61.3916 37.9971C62.0752 39.1299 62.4854 40.4189 62.6221 41.8643H58.2275C58.1787 41.0049 58.0078 40.2773 57.7148 39.6816C57.4219 39.0762 56.9775 38.6221 56.3818 38.3193C55.7959 38.0068 55.0146 37.8506 54.0381 37.8506C53.3057 37.8506 52.666 37.9873 52.1191 38.2607C51.5723 38.5342 51.1133 38.9492 50.7422 39.5059C50.3711 40.0625 50.0928 40.7656 49.9072 41.6152C49.7314 42.4551 49.6436 43.4414 49.6436 44.5742V46.083C49.6436 47.1865 49.7266 48.1582 49.8926 48.998C50.0586 49.8281 50.3125 50.5312 50.6543 51.1074C51.0059 51.6738 51.4551 52.1035 52.002 52.3965C52.5586 52.6797 53.2275 52.8213 54.0088 52.8213C54.9268 52.8213 55.6836 52.6748 56.2793 52.3818C56.875 52.0889 57.3291 51.6543 57.6416 51.0781C57.9639 50.502 58.1543 49.7842 58.2129 48.9248ZM74.1504 38.3193L68.3496 56H63.6768L71.6016 34.6719H74.5752L74.1504 38.3193ZM78.9697 56L73.1543 38.3193L72.6855 34.6719H75.6885L83.6572 56H78.9697ZM78.7061 48.0605V51.5029H67.4414V48.0605H78.7061ZM99.3457 52.5723V56H88.6084V52.5723H99.3457ZM90.0293 34.6719V56H85.6348V34.6719H90.0293ZM116.177 52.5723V56H104.824V52.5723H116.177ZM106.26 34.6719V56H101.865V34.6719H106.26ZM114.697 43.3584V46.6982H104.824V43.3584H114.697ZM116.162 34.6719V38.1143H104.824V34.6719H116.162ZM136.099 34.6719V56H131.704L123.135 41.7031V56H118.74V34.6719H123.135L131.719 48.9834V34.6719H136.099ZM146.47 56H141.826L141.855 52.5723H146.47C147.622 52.5723 148.594 52.3135 149.385 51.7959C150.176 51.2686 150.771 50.502 151.172 49.4961C151.582 48.4902 151.787 47.2744 151.787 45.8486V44.8086C151.787 43.7148 151.67 42.7529 151.436 41.9229C151.211 41.0928 150.874 40.3945 150.425 39.8281C149.976 39.2617 149.424 38.8369 148.77 38.5537C148.115 38.2607 147.363 38.1143 146.514 38.1143H141.738V34.6719H146.514C147.939 34.6719 149.243 34.916 150.425 35.4043C151.616 35.8828 152.646 36.5713 153.516 37.4697C154.385 38.3682 155.054 39.4424 155.522 40.6924C156.001 41.9326 156.24 43.3145 156.24 44.8379V45.8486C156.24 47.3623 156.001 48.7441 155.522 49.9941C155.054 51.2441 154.385 52.3184 153.516 53.2168C152.656 54.1055 151.626 54.7939 150.425 55.2822C149.233 55.7607 147.915 56 146.47 56ZM144.316 34.6719V56H139.922V34.6719H144.316ZM167.783 38.3193L161.982 56H157.31L165.234 34.6719H168.208L167.783 38.3193ZM172.603 56L166.787 38.3193L166.318 34.6719H169.321L177.29 56H172.603ZM172.339 48.0605V51.5029H161.074V48.0605H172.339ZM165.308 33.4707L168.179 28.959H172.764L168.735 33.4707H165.308ZM179.268 34.6719H187.222C188.853 34.6719 190.254 34.916 191.426 35.4043C192.607 35.8926 193.516 36.6152 194.15 37.5723C194.785 38.5293 195.103 39.7061 195.103 41.1025C195.103 42.2451 194.907 43.2266 194.517 44.0469C194.136 44.8574 193.594 45.5361 192.891 46.083C192.197 46.6201 191.382 47.0498 190.444 47.3721L189.053 48.1045H182.139L182.109 44.6768H187.251C188.022 44.6768 188.662 44.54 189.17 44.2666C189.678 43.9932 190.059 43.6123 190.312 43.124C190.576 42.6357 190.708 42.0693 190.708 41.4248C190.708 40.7412 190.581 40.1504 190.327 39.6523C190.073 39.1543 189.688 38.7734 189.17 38.5098C188.652 38.2461 188.003 38.1143 187.222 38.1143H183.662V56H179.268V34.6719ZM191.191 56L186.328 46.4932L190.972 46.4639L195.894 55.7949V56H191.191ZM203.159 34.6719V56H198.779V34.6719H203.159ZM224.795 44.8379V45.8486C224.795 47.4697 224.575 48.9248 224.136 50.2139C223.696 51.5029 223.076 52.6016 222.275 53.5098C221.475 54.4082 220.518 55.0967 219.404 55.5752C218.301 56.0537 217.075 56.293 215.728 56.293C214.39 56.293 213.164 56.0537 212.051 55.5752C210.947 55.0967 209.99 54.4082 209.18 53.5098C208.369 52.6016 207.739 51.5029 207.29 50.2139C206.851 48.9248 206.631 47.4697 206.631 45.8486V44.8379C206.631 43.207 206.851 41.752 207.29 40.4727C207.729 39.1836 208.35 38.085 209.15 37.1768C209.961 36.2686 210.918 35.5752 212.021 35.0967C213.135 34.6182 214.36 34.3789 215.698 34.3789C217.046 34.3789 218.271 34.6182 219.375 35.0967C220.488 35.5752 221.445 36.2686 222.246 37.1768C223.057 38.085 223.682 39.1836 224.121 40.4727C224.57 41.752 224.795 43.207 224.795 44.8379ZM220.356 45.8486V44.8086C220.356 43.6758 220.254 42.6797 220.049 41.8203C219.844 40.9609 219.541 40.2383 219.141 39.6523C218.74 39.0664 218.252 38.627 217.676 38.334C217.1 38.0312 216.44 37.8799 215.698 37.8799C214.956 37.8799 214.297 38.0312 213.721 38.334C213.154 38.627 212.671 39.0664 212.271 39.6523C211.88 40.2383 211.582 40.9609 211.377 41.8203C211.172 42.6797 211.069 43.6758 211.069 44.8086V45.8486C211.069 46.9717 211.172 47.9678 211.377 48.8369C211.582 49.6963 211.885 50.4238 212.285 51.0195C212.686 51.6055 213.174 52.0498 213.75 52.3525C214.326 52.6553 214.985 52.8066 215.728 52.8066C216.47 52.8066 217.129 52.6553 217.705 52.3525C218.281 52.0498 218.765 51.6055 219.155 51.0195C219.546 50.4238 219.844 49.6963 220.049 48.8369C220.254 47.9678 220.356 46.9717 220.356 45.8486Z" fill="url(#paint0_linear_122_239)"/>
<defs>
<linearGradient id="paint0_linear_122_239" x1="135" y1="27" x2="135" y2="65" gradientUnits="userSpaceOnUse">
<stop stop-color="white"/>
<stop offset="1" stop-color="#D9D9D9" stop-opacity="0.8"/>
</linearGradient>
</defs>
</svg>
